<?xml version="1.0" encoding="UTF-8"?>
<svg width="200px" height="50px" viewBox="0 0 200 50" version="1.1" xmlns="http://www.w3.org/2000/svg">
    <title>Water Footprint Calculator Logo</title>
    <defs>
        <linearGradient x1="50%" y1="0%" x2="50%" y2="100%" id="logoGradient">
            <stop stop-color="#3498DB" offset="0%"></stop>
            <stop stop-color="#2980B9" offset="100%"></stop>
        </linearGradient>
    </defs>
    <g stroke="none" stroke-width="1" fill="none" fill-rule="evenodd">
        <!-- Water Drop -->
        <path d="M25,5 C25,5 40,25 40,35 C40,43.2843 33.2843,50 25,50 C16.7157,50 10,43.2843 10,35 C10,25 25,5 25,5 Z" fill="url(#logoGradient)"></path>
        <path d="M20,30 C20,30 23.75,25 27.5,30 C31.25,35 27.5,40 22.5,37.5 C17.5,35 20,30 20,30 Z" fill="#FFFFFF" fill-opacity="0.3"></path>
        
        <!-- Footprint -->
        <path d="M55,15 C58,12 63,13 65,16 C67,19 66,25 63,27 C60,29 55,28 53,25 C51,22 52,18 55,15 Z" fill="url(#logoGradient)"></path>
        <path d="M60,23 C63,21 68,22 70,25 C72,28 71,34 68,36 C65,38 60,37 58,34 C56,31 57,25 60,23 Z" fill="url(#logoGradient)"></path>
        <path d="M68,30 C71,28 76,29 78,32 C80,35 79,41 76,43 C73,45 68,44 66,41 C64,38 65,32 68,30 Z" fill="url(#logoGradient)"></path>
        <path d="M75,35 C78,33 83,34 85,37 C87,40 86,46 83,48 C80,50 75,49 73,46 C71,43 72,37 75,35 Z" fill="url(#logoGradient)"></path>
        <path d="M65,35 C70,35 85,35 85,40 C85,45 75,50 70,50 C65,50 60,45 60,40 C60,35 60,35 65,35 Z" fill="url(#logoGradient)"></path>
        
        <!-- Text part (just a simplified representation) -->
        <rect x="95" y="20" width="100" height="5" rx="2.5" fill="#333333"></rect>
        <rect x="95" y="30" width="80" height="5" rx="2.5" fill="#333333"></rect>
    </g>
</svg> 